<?xml version="1.0" standalone="no"?>
<!DOCTYPE svg PUBLIC "-//W3C//DTD SVG 20010904//EN"
 "http://www.w3.org/TR/2001/REC-SVG-20010904/DTD/svg10.dtd">
<svg version="1.0" xmlns="http://www.w3.org/2000/svg"
 width="500.000000pt" height="500.000000pt" viewBox="0 0 500.000000 500.000000"
 preserveAspectRatio="xMidYMid meet">
<metadata>
Created by potrace 1.14, written by Peter Selinger 2001-2017
</metadata>
<g transform="translate(0.000000,500.000000) scale(0.100000,-0.100000)"
fill="#000000" stroke="none">
<path d="M1719 4880 c-1 -8 -1 -43 -1 -77 l1 -63 -79 0 -80 0 0 -79 0 -79 -62
0 c-107 0 -98 7 -98 -77 l0 -75 -75 0 c-64 0 -75 -2 -76 -17 -2 -52 3 -288 6
-291 2 -2 71 -4 154 -4 l151 1 0 -154 0 -154 78 -3 77 -3 1 -312 1 -313 -78 0
-79 0 0 -80 0 -80 -80 0 -80 0 0 -79 0 -79 -75 1 -75 2 0 -50 c-3 -225 -5
-260 -20 -261 -8 -1 -43 -2 -77 -3 l-63 -1 0 -462 c0 -255 3 -473 6 -485 5
-20 13 -23 54 -23 31 0 54 6 64 16 25 25 33 10 34 -66 l1 -70 -195 0 c-148 0
-194 -3 -195 -12 0 -7 -1 -69 -2 -138 l-2 -125 -70 -2 c-38 0 -82 -2 -97 -2
l-26 -1 1 -207 c2 -237 -9 -215 113 -214 49 1 73 -3 77 -12 2 -6 5 -64 5 -127
0 -63 1 -127 1 -142 l1 -28 115 0 115 0 0 -100 0 -100 1325 0 1325 0 1 38 c1
20 2 64 3 97 l1 60 105 2 c58 0 120 2 138 2 l33 1 -2 93 c-1 50 -1 120 0 154
l1 61 45 -2 c25 -1 50 1 56 5 12 7 18 437 6 456 -6 9 -81 8 -97 -2 -11 -6 -11
0 -12 163 0 53 -3 102 -5 109 -3 8 -63 11 -214 9 l-209 -2 0 64 0 64 75 -4 75
-3 1 40 c2 195 0 888 -4 891 -3 3 -37 5 -76 5 l-71 0 0 155 0 154 -52 1 c-113
2 -103 -6 -106 81 l-3 77 -77 3 -77 3 -2 55 c-1 30 -2 65 -2 78 -1 21 -5 22
-76 22 l-75 0 0 315 0 315 75 0 c64 0 75 2 76 18 1 22 1 854 0 909 l-1 42 -72
-2 -73 -1 -5 60 -5 59 -697 0 c-613 0 -698 -2 -699 -15z"/>
</g>
</svg>
